<mxfile host="Electron" modified="2023-07-17T09:36:15.167Z" agent="Mozilla/5.0 (Windows NT 10.0; Win64; x64) AppleWebKit/537.36 (KHTML, like Gecko) draw.io/21.6.1 Chrome/112.0.5615.204 Electron/24.6.1 Safari/537.36" etag="zJrPndNKTDjCs7oKqs34" version="21.6.1" type="device">
  <diagram name="Page-1" id="GCnOcoZATRpnzxRjssM9">
    <mxGraphModel dx="1434" dy="836" grid="1" gridSize="10" guides="1" tooltips="1" connect="1" arrows="1" fold="1" page="1" pageScale="1" pageWidth="827" pageHeight="1169" math="0" shadow="0">
      <root>
        <mxCell id="0" />
        <mxCell id="1" parent="0" />
        <mxCell id="-MuljCGo22zbGA9eSF4o-1" value="Idle" style="ellipse;whiteSpace=wrap;html=1;aspect=fixed;" vertex="1" parent="1">
          <mxGeometry x="160" y="180" width="80" height="80" as="geometry" />
        </mxCell>
        <mxCell id="-MuljCGo22zbGA9eSF4o-2" value="Pending" style="ellipse;whiteSpace=wrap;html=1;aspect=fixed;" vertex="1" parent="1">
          <mxGeometry x="280" y="180" width="80" height="80" as="geometry" />
        </mxCell>
        <mxCell id="-MuljCGo22zbGA9eSF4o-3" value="Success" style="ellipse;whiteSpace=wrap;html=1;aspect=fixed;" vertex="1" parent="1">
          <mxGeometry x="404" y="120" width="80" height="80" as="geometry" />
        </mxCell>
        <mxCell id="-MuljCGo22zbGA9eSF4o-4" value="Error" style="ellipse;whiteSpace=wrap;html=1;aspect=fixed;" vertex="1" parent="1">
          <mxGeometry x="404" y="240" width="80" height="80" as="geometry" />
        </mxCell>
        <mxCell id="-MuljCGo22zbGA9eSF4o-5" value="" style="endArrow=classic;html=1;rounded=0;exitX=1;exitY=0.5;exitDx=0;exitDy=0;entryX=0;entryY=0.5;entryDx=0;entryDy=0;" edge="1" parent="1" source="-MuljCGo22zbGA9eSF4o-1" target="-MuljCGo22zbGA9eSF4o-2">
          <mxGeometry width="50" height="50" relative="1" as="geometry">
            <mxPoint x="210" y="400" as="sourcePoint" />
            <mxPoint x="260" y="350" as="targetPoint" />
          </mxGeometry>
        </mxCell>
        <mxCell id="-MuljCGo22zbGA9eSF4o-6" value="" style="endArrow=classic;html=1;rounded=0;exitX=1;exitY=0.5;exitDx=0;exitDy=0;entryX=0;entryY=0.5;entryDx=0;entryDy=0;" edge="1" parent="1" source="-MuljCGo22zbGA9eSF4o-2" target="-MuljCGo22zbGA9eSF4o-3">
          <mxGeometry width="50" height="50" relative="1" as="geometry">
            <mxPoint x="170" y="460" as="sourcePoint" />
            <mxPoint x="220" y="410" as="targetPoint" />
          </mxGeometry>
        </mxCell>
        <mxCell id="-MuljCGo22zbGA9eSF4o-7" value="" style="endArrow=classic;html=1;rounded=0;exitX=1;exitY=0.5;exitDx=0;exitDy=0;entryX=0;entryY=0.5;entryDx=0;entryDy=0;" edge="1" parent="1" source="-MuljCGo22zbGA9eSF4o-2" target="-MuljCGo22zbGA9eSF4o-4">
          <mxGeometry width="50" height="50" relative="1" as="geometry">
            <mxPoint x="160" y="500" as="sourcePoint" />
            <mxPoint x="210" y="450" as="targetPoint" />
          </mxGeometry>
        </mxCell>
        <mxCell id="-MuljCGo22zbGA9eSF4o-9" value="" style="endArrow=classic;html=1;exitX=0.5;exitY=1;exitDx=0;exitDy=0;entryX=0.5;entryY=1;entryDx=0;entryDy=0;dashed=1;jumpStyle=none;curved=1;" edge="1" parent="1" source="-MuljCGo22zbGA9eSF4o-4" target="-MuljCGo22zbGA9eSF4o-1">
          <mxGeometry width="50" height="50" relative="1" as="geometry">
            <mxPoint x="290" y="530" as="sourcePoint" />
            <mxPoint x="340" y="480" as="targetPoint" />
            <Array as="points">
              <mxPoint x="290" y="320" />
            </Array>
          </mxGeometry>
        </mxCell>
        <mxCell id="-MuljCGo22zbGA9eSF4o-10" value="" style="endArrow=classic;html=1;exitX=0.5;exitY=0;exitDx=0;exitDy=0;entryX=0.5;entryY=0;entryDx=0;entryDy=0;dashed=1;jumpStyle=none;curved=1;" edge="1" parent="1" source="-MuljCGo22zbGA9eSF4o-3" target="-MuljCGo22zbGA9eSF4o-1">
          <mxGeometry width="50" height="50" relative="1" as="geometry">
            <mxPoint x="434" y="20" as="sourcePoint" />
            <mxPoint x="190" y="80" as="targetPoint" />
            <Array as="points">
              <mxPoint x="320" y="100" />
            </Array>
          </mxGeometry>
        </mxCell>
        <mxCell id="-MuljCGo22zbGA9eSF4o-11" value="" style="endArrow=classic;html=1;exitX=0.5;exitY=1;exitDx=0;exitDy=0;entryX=0.5;entryY=1;entryDx=0;entryDy=0;dashed=1;jumpStyle=none;curved=1;" edge="1" parent="1" source="-MuljCGo22zbGA9eSF4o-4" target="-MuljCGo22zbGA9eSF4o-2">
          <mxGeometry width="50" height="50" relative="1" as="geometry">
            <mxPoint x="454" y="330" as="sourcePoint" />
            <mxPoint x="210" y="270" as="targetPoint" />
            <Array as="points">
              <mxPoint x="300" y="330" />
            </Array>
          </mxGeometry>
        </mxCell>
        <mxCell id="-MuljCGo22zbGA9eSF4o-12" value="" style="endArrow=classic;html=1;exitX=0.5;exitY=0;exitDx=0;exitDy=0;entryX=0.5;entryY=0;entryDx=0;entryDy=0;dashed=1;jumpStyle=none;curved=1;" edge="1" parent="1" source="-MuljCGo22zbGA9eSF4o-3" target="-MuljCGo22zbGA9eSF4o-2">
          <mxGeometry width="50" height="50" relative="1" as="geometry">
            <mxPoint x="454" y="130" as="sourcePoint" />
            <mxPoint x="210" y="190" as="targetPoint" />
            <Array as="points">
              <mxPoint x="330" y="110" />
            </Array>
          </mxGeometry>
        </mxCell>
      </root>
    </mxGraphModel>
  </diagram>
</mxfile>
